<?xml version="1.0" standalone="no"?>
<!DOCTYPE svg PUBLIC "-//W3C//DTD SVG 20010904//EN"
 "http://www.w3.org/TR/2001/REC-SVG-20010904/DTD/svg10.dtd">
<svg version="1.0" xmlns="http://www.w3.org/2000/svg"
 width="512.000000pt" height="512.000000pt" viewBox="0 0 512.000000 512.000000"
 preserveAspectRatio="xMidYMid meet">
<metadata>
Created by potrace 1.11, written by Peter Selinger 2001-2013
</metadata>
<g transform="translate(0.000000,512.000000) scale(0.100000,-0.100000)"
fill="#000000" stroke="none">
<path d="M2773 4323 c3 -5 -5 -9 -16 -9 -38 -3 -110 -42 -153 -84 -23 -22 -72
-90 -109 -152 -37 -62 -71 -115 -75 -118 -4 -3 -26 -36 -49 -75 -23 -38 -60
-97 -82 -130 -21 -33 -45 -71 -51 -85 -7 -14 -29 -48 -50 -76 -21 -28 -38 -54
-38 -58 0 -4 -13 -27 -30 -51 -16 -24 -30 -47 -30 -51 0 -3 -19 -34 -43 -68
-59 -83 -98 -152 -90 -160 3 -3 2 -6 -4 -6 -16 0 -220 -323 -215 -341 1 -6 -1
-8 -6 -5 -4 2 -21 -19 -37 -47 -15 -29 -39 -65 -52 -80 -13 -16 -21 -33 -17
-38 3 -5 1 -9 -4 -9 -6 0 -32 -37 -58 -82 -26 -46 -55 -92 -64 -103 -10 -11
-30 -42 -45 -70 -15 -27 -37 -63 -49 -80 -47 -64 -136 -221 -130 -229 2 -3 1
-4 -2 -1 -4 2 -14 -6 -24 -18 -13 -17 -17 -39 -15 -92 1 -38 -1 -74 -4 -80 -3
-5 -7 -55 -8 -110 -1 -55 -4 -140 -7 -190 -2 -49 -8 -151 -12 -225 -4 -74 -8
-160 -10 -190 -14 -233 -26 -720 -18 -720 4 0 15 7 25 16 16 15 18 11 24 -50
4 -36 5 -77 3 -91 -4 -21 -1 -25 18 -25 13 0 24 4 24 10 0 5 3 9 8 9 12 -3 72
25 72 33 0 4 6 8 14 8 8 0 22 7 30 16 9 8 16 13 16 9 0 -8 94 47 98 57 2 4 9
8 17 8 7 0 50 21 96 47 46 25 113 62 149 80 116 61 219 118 227 126 4 5 23 15
41 22 17 8 32 19 32 25 0 6 4 8 10 5 9 -5 126 58 158 85 6 6 12 8 12 5 0 -5
34 12 125 64 28 15 83 45 122 66 41 21 70 42 66 48 -3 6 -1 7 6 3 20 -12 54
18 91 80 19 33 49 79 67 103 18 24 33 48 33 53 0 4 26 47 57 95 31 48 56 93
56 100 0 6 3 10 7 8 4 -2 17 15 30 38 13 23 37 62 55 87 17 25 35 52 39 60 3
8 31 53 61 100 30 47 80 128 111 180 32 52 65 104 75 115 9 11 40 58 68 105
53 87 142 230 244 391 31 50 57 94 57 98 0 4 8 16 18 27 10 10 42 59 71 108
30 49 74 122 100 161 43 68 81 128 125 199 10 17 18 41 18 53 0 13 4 20 9 17
5 -3 9 54 9 126 0 97 -3 129 -12 124 -6 -4 -8 -3 -4 4 7 11 -13 72 -55 167
-14 34 -16 39 -18 59 0 7 -30 57 -65 110 -65 97 -152 191 -216 236 -19 14 -44
32 -54 42 -19 17 -31 22 -49 19 -5 -1 -6 3 -3 8 4 5 -3 12 -14 16 -11 3 -20
10 -20 15 0 9 -88 53 -107 53 -7 0 -13 3 -13 7 0 11 -107 60 -132 60 -13 0
-29 5 -35 11 -7 7 -30 12 -53 12 -22 0 -43 4 -46 8 -3 5 -73 9 -155 9 -83 0
-148 -3 -146 -7z m137 -502 c235 -67 480 -253 569 -431 58 -115 56 -147 -11
-258 -44 -74 -53 -83 -62 -68 -94 155 -203 270 -344 364 -160 106 -288 158
-474 191 l-97 17 39 64 c47 79 84 115 130 128 59 17 180 14 250 -7z m-245
-390 c74 -19 177 -63 220 -94 19 -14 18 -16 -17 -68 -40 -61 -173 -274 -208
-334 -13 -22 -27 -42 -31 -45 -9 -7 -109 -170 -109 -179 0 -3 -13 -22 -28 -41
-15 -19 -54 -80 -87 -135 -33 -55 -62 -102 -66 -105 -3 -3 -29 -43 -58 -90
-146 -239 -154 -249 -206 -274 -127 -58 -309 -75 -465 -42 -41 9 -85 16 -98
16 l-23 0 20 29 c12 16 21 32 21 36 0 4 10 21 23 38 22 30 123 192 212 337 25
41 69 112 98 156 62 98 92 146 174 278 34 56 66 106 71 112 5 6 38 57 72 114
34 57 78 124 96 150 19 26 34 51 34 54 0 4 14 27 30 51 24 35 39 46 73 54 55
13 155 6 252 -18z m458 -275 c65 -68 98 -111 128 -170 46 -93 48 -124 11 -179
-16 -23 -41 -64 -57 -92 -15 -27 -31 -52 -35 -55 -3 -3 -37 -56 -76 -118 -38
-62 -93 -150 -121 -195 -29 -45 -58 -93 -65 -107 -6 -14 -18 -33 -27 -43 -8
-9 -35 -51 -60 -91 -71 -116 -174 -279 -261 -416 -44 -69 -92 -146 -108 -173
l-29 -47 -41 52 c-110 142 -173 303 -175 448 -1 68 1 80 32 130 18 30 36 57
40 60 4 3 34 50 66 105 32 55 64 107 71 115 12 14 104 162 128 205 12 21 63
101 125 194 19 29 40 63 47 75 24 44 98 162 121 192 12 17 23 34 23 37 0 7 52
92 97 159 25 37 25 37 52 21 14 -9 66 -58 114 -107z m-990 -1239 c4 -45 14
-107 23 -137 18 -60 84 -199 115 -239 94 -124 98 -129 86 -139 -10 -8 -105
-60 -317 -175 -87 -47 -355 -195 -386 -212 l-30 -18 -46 46 c-43 43 -94 67
-141 67 -17 0 -18 6 -13 58 3 31 8 134 11 227 3 94 11 261 17 373 10 175 14
202 27 198 70 -20 215 -38 306 -38 113 0 243 24 302 56 16 8 31 15 34 16 3 0
9 -37 12 -83z"/>
</g>
</svg>
